HIERARCHY
ROOT Pelvis
{
	OFFSET 0.000000 0.000000 0.000000
	CHANNELS 6 Xposition Yposition Zposition Zrotation Yrotation Xrotation 
	JOINT Left_hip
	{
		OFFSET 0.076090 -0.089427 -0.010735
		CHANNELS 3 Zrotation Yrotation Xrotation
		JOINT Left_knee
		{
			OFFSET 0.030200 -0.359518 -0.003501
			CHANNELS 3 Zrotation Yrotation Xrotation
			JOINT Left_ankle
			{
				OFFSET -0.011005 -0.371022 -0.045888
				CHANNELS 3 Zrotation Yrotation Xrotation
				JOINT Left_foot
				{
					OFFSET 0.023930 -0.052103 0.111084
					CHANNELS 3 Zrotation Yrotation Xrotation
					End Site
					{
						OFFSET 0.000000 0.000000 0.000000
					}
				}
			}
		}
	}
	JOINT Right_hip
	{
		OFFSET -0.073836 -0.088112 -0.007709
		CHANNELS 3 Zrotation Yrotation Xrotation
		JOINT Right_knee
		{
			OFFSET -0.035715 -0.367809 -0.006536
			CHANNELS 3 Zrotation Yrotation Xrotation
			JOINT Right_ankle
			{
				OFFSET 0.013718 -0.371958 -0.043815
				CHANNELS 3 Zrotation Yrotation Xrotation
				JOINT Right_foot
				{
					OFFSET -0.021936 -0.046387 0.114542
					CHANNELS 3 Zrotation Yrotation Xrotation
					End Site
					{
						OFFSET 0.000000 0.000000 0.000000
					}
				}
			}
		}
	}
	JOINT Spine1
	{
		OFFSET -0.001865 0.102064 -0.019455
		CHANNELS 3 Zrotation Yrotation Xrotation
		JOINT Spine2
		{
			OFFSET 0.003082 0.129260 -0.001938
			CHANNELS 3 Zrotation Yrotation Xrotation
			JOINT Spine3
			{
				OFFSET 0.001104 0.048093 0.026561
				CHANNELS 3 Zrotation Yrotation Xrotation
				JOINT Neck
				{
					OFFSET -0.002010 0.204222 -0.047183
					CHANNELS 3 Zrotation Yrotation Xrotation
					JOINT Head
					{
						OFFSET 0.005050 0.063649 0.048489
						CHANNELS 3 Zrotation Yrotation Xrotation
						End Site
						{
							OFFSET 0.000000 0.000000 0.000000
						}
					}
				}
				JOINT Left_collar
				{
					OFFSET 0.072979 0.114065 -0.031633
					CHANNELS 3 Zrotation Yrotation Xrotation
					JOINT Left_shoulder
					{
						OFFSET 0.083419 0.032092 -0.006530
						CHANNELS 3 Zrotation Yrotation Xrotation
						JOINT Left_elbow
						{
							OFFSET 0.239393 -0.012014 -0.025060
							CHANNELS 3 Zrotation Yrotation Xrotation
							JOINT Left_wrist
							{
								OFFSET 0.227297 0.008116 0.000384
								CHANNELS 3 Zrotation Yrotation Xrotation
								JOINT Left_palm
								{
									OFFSET 0.074607 -0.009248 -0.012277
									CHANNELS 3 Zrotation Yrotation Xrotation
									End Site
									{
										OFFSET 0.000000 0.000000 0.000000
									}
								}
							}
						}
					}
				}
				JOINT Right_collar
				{
					OFFSET -0.074980 0.111880 -0.037894
					CHANNELS 3 Zrotation Yrotation Xrotation
					JOINT Right_shoulder
					{
						OFFSET -0.087565 0.034353 -0.009323
						CHANNELS 3 Zrotation Yrotation Xrotation
						JOINT Right_elbow
						{
							OFFSET -0.236838 -0.013719 -0.019794
							CHANNELS 3 Zrotation Yrotation Xrotation
							JOINT Right_wrist
							{
								OFFSET -0.235053 0.006433 -0.003853
								CHANNELS 3 Zrotation Yrotation Xrotation
								JOINT Right_palm
								{
									OFFSET -0.075499 -0.006894 -0.009792
									CHANNELS 3 Zrotation Yrotation Xrotation
									End Site
									{
										OFFSET 0.000000 0.000000 0.000000
									}
								}
							}
						}
					}
				}
			}
		}
	}
}
MOTION
Frames: 12
Frame Time: 0.100000
0.000000 0.000000 0.000000 173.902874 20.335611 -15.551815 2.624761 1.694613 8.399239 -3.824752 -8.935956 -7.045804 1.310541 9.242888 -6.454320 0.610842 7.095716 -2.538642 3.046465 1.163550 7.722341 2.343688 10.263705 -4.899854 4.217855 -10.068571 -8.721824 -6.183651 7.372689 6.051515 -0.178380 0.560729 2.828674 3.422648 -3.618241 3.395606 0.806792 -3.087643 2.985700 7.274298 -12.594666 -9.192990 2.505688 -21.702492 3.972780 -29.337881 1.441202 5.652820 -49.549792 -5.537240 9.183581 1.961043 -6.343958 12.262301 -9.225750 1.177966 3.072063 -10.067900 -4.685169 -12.871421 31.244733 1.903088 2.952015 50.200383 -2.956859 13.628047 -5.509628 5.226009 1.228460 7.405265 -3.524440 1.590529 12.303036 7.835514 -6.943254 
0.000424 -0.000016 -0.000001 174.072279 19.364978 -15.628869 2.681114 1.954131 8.724077 -3.814241 -8.742610 -7.198312 0.992836 9.638275 -6.524512 1.192934 6.897072 -2.624496 2.960598 1.212874 7.771283 2.489186 10.670033 -4.833809 4.584380 -9.732170 -8.596159 -6.541926 7.299536 5.632729 0.041107 0.483115 2.762949 3.509602 -3.395667 3.386635 0.952709 -3.012015 3.214209 6.774719 -11.384118 -8.799629 1.678872 -20.367336 4.233179 -29.180185 3.070958 5.639892 -49.705185 -3.832461 8.527706 1.975746 -4.926275 11.513510 -9.424016 0.964499 2.288350 -10.069269 -4.702934 -13.112644 31.399498 1.106498 2.764082 49.996536 -2.565762 13.656966 -5.167960 5.266871 0.857001 7.305355 -3.356697 1.127388 12.535041 7.747395 -6.985104 
0.000915 0.000270 -0.002077 174.196500 19.538181 -15.770921 2.515237 1.897382 8.681099 -3.788664 -8.691663 -7.119364 1.184401 9.263934 -6.334820 0.853331 7.370432 -2.695180 2.816797 1.269405 7.647690 2.572635 10.265634 -4.494578 4.121906 -9.612417 -8.742715 -5.815628 7.317911 6.168758 0.367108 0.382937 2.803380 3.335136 -3.443799 3.396727 0.795377 -2.970477 2.817255 6.122848 -10.233478 -7.097124 0.455541 -18.955070 5.822751 -29.722488 1.633608 5.391180 -49.977493 -5.421795 8.647044 2.360139 -5.131728 10.566485 -9.377854 1.185969 2.392706 -10.101936 -4.747803 -12.960106 31.251826 2.227696 2.872354 48.984577 -0.549748 13.468042 -6.067492 6.200833 -0.728082 6.715569 -3.231253 0.867763 12.635824 7.799453 -6.895923 
0.000601 0.000672 -0.005908 174.403812 20.132315 -16.067362 2.089764 1.549573 8.544027 -3.731101 -8.482601 -6.729152 1.893363 8.701043 -6.071334 -0.279907 8.126608 -2.939557 2.551677 1.252765 7.695196 2.558478 9.550705 -4.251248 3.151072 -9.352402 -8.897192 -4.133909 7.251018 7.399182 0.974864 0.436664 2.890080 2.975808 -3.451178 3.563997 0.284271 -2.766013 2.229401 5.357911 -9.377959 -4.151323 -0.808187 -17.464525 8.352118 -30.358223 -1.275805 5.153910 -50.069103 -9.135056 9.765194 2.600559 -10.614502 10.520893 -9.174256 0.849149 2.198906 -10.133428 -4.695910 -11.889268 30.676888 4.107153 3.256702 47.545777 1.849695 13.087811 -7.320323 8.187087 -2.519010 6.103719 -3.156857 0.721077 12.525503 7.923775 -6.704369 
0.000073 0.001256 -0.013620 174.814317 20.631357 -16.105019 1.250185 0.876923 7.685425 -3.642965 -7.779678 -5.721907 1.920273 8.535195 -5.745823 -0.417470 8.264638 -3.754664 2.040043 1.266797 6.909913 2.511375 8.779698 -3.209840 3.218718 -9.004916 -9.115792 -3.830225 7.568744 7.881423 2.160550 0.302240 3.808860 2.969708 -3.083106 3.533770 0.178679 -2.282562 2.145459 4.024514 -8.271499 -2.862292 -2.169197 -15.677125 10.666208 -29.695790 -3.316080 4.689650 -51.586887 -12.680025 11.843321 3.352152 -23.458933 11.129877 -7.283957 -1.267663 -0.618483 -9.510904 -4.261276 -9.129673 29.310949 5.981423 3.588435 45.008124 3.946370 12.694575 -7.787062 10.459827 -3.780172 5.183543 -2.718044 1.247544 11.698808 7.624478 -6.265994 
0.000528 0.002314 -0.024256 175.420241 20.513264 -15.248471 0.341185 0.249808 6.113137 -3.547613 -6.685341 -5.333679 1.274147 8.715084 -5.072900 0.376044 7.714685 -4.351959 1.401839 1.589693 4.848636 2.468278 8.036988 -1.881023 3.724889 -8.462982 -9.168334 -4.258970 7.608560 8.019911 3.739973 -0.263056 5.519709 3.585931 -2.832607 3.360461 0.813611 -1.908453 2.275273 1.954449 -6.754439 -3.475767 -3.648036 -13.716239 11.336485 -27.965043 -4.596361 4.477066 -54.067795 -14.676271 14.003787 5.166312 -35.498668 10.927649 -4.992218 -3.511494 -5.064671 -8.282950 -3.573835 -6.191978 27.819746 7.946812 3.806339 41.756833 6.436574 11.986212 -7.808068 10.714269 -5.055430 4.197906 -2.356060 1.774673 10.462741 6.903987 -5.788548 
0.004096 0.003854 -0.038979 175.948347 20.233059 -13.675547 -0.374535 0.094510 3.394968 -3.424729 -5.430679 -4.872772 0.836618 8.579184 -4.064460 0.836601 7.480393 -4.459754 0.855594 2.103565 1.644955 2.430919 7.066174 -0.525686 4.096544 -7.630110 -8.593803 -4.523142 6.964046 8.165391 5.001004 -0.948258 8.407871 4.309634 -2.900623 3.239816 1.662075 -1.701346 2.484641 0.775226 -5.917649 -4.667548 -4.122862 -12.781905 10.509302 -25.913982 -5.957245 4.321811 -55.668945 -15.546078 15.329822 5.681728 -41.348519 11.783351 -4.782697 -4.652812 -6.599926 -7.411598 -3.062077 -5.226222 26.161905 9.822769 3.402568 40.246662 9.126038 10.675376 -7.865218 10.755062 -6.771266 4.286537 -2.003880 1.412728 9.650687 6.331454 -5.648958 
0.008067 0.006345 -0.057989 176.775439 18.355501 -11.550860 -1.139949 0.193895 -0.235999 -3.260462 -3.729510 -3.907182 0.324732 8.924657 -2.962533 1.961551 7.815273 -4.861821 0.339979 3.028008 -3.281507 2.327044 6.548529 2.449661 4.843509 -6.564355 -7.996478 -5.611305 6.633306 7.679979 6.504586 -1.573523 12.272553 4.602300 -2.484028 3.405844 2.107771 -1.242845 3.143481 0.223003 -5.857693 -6.491498 -4.605639 -13.184386 9.971022 -24.945180 -6.958843 3.956815 -57.363533 -15.241617 15.818361 6.276894 -39.693271 11.091715 -5.343871 -4.853412 -5.857196 -6.863713 -2.778981 -5.804238 24.836159 12.146492 2.792028 39.928412 12.409551 9.723386 -7.724923 10.236445 -8.547403 3.971300 -1.564287 1.606342 9.167734 5.957363 -5.946861 
0.007837 0.013771 -0.088435 178.578465 13.670799 -9.465199 -3.000346 1.913804 -4.417464 -2.999367 -0.255266 -2.389830 -4.251239 10.994831 -1.922718 9.695803 3.893429 -6.439292 -0.600260 4.490204 -11.285105 1.079540 6.789973 9.945717 12.020519 -4.257752 -5.658509 -18.184244 5.473568 1.069667 9.410859 -2.664300 19.077276 3.381695 -0.640844 7.493296 3.216791 1.245529 2.157198 -4.001455 -11.975783 -11.168596 -1.190910 -12.672091 3.502075 -23.420552 -13.479060 5.253282 -61.044362 -10.418832 17.746439 13.645780 -37.195708 3.213652 5.397093 -9.093869 0.287863 -9.178844 -2.099554 -12.182626 20.172759 22.093116 6.707173 36.228916 13.640344 3.205154 -6.037164 7.049859 -15.133564 -3.729911 2.849626 2.363710 8.065053 4.016114 -9.240549 
0.003477 0.029447 -0.123923 -178.302464 10.418220 -4.660387 -6.146925 1.822304 -11.410459 -3.853907 1.512572 -1.502430 -3.834979 12.363839 -2.087573 10.087197 3.880830 -5.660294 -3.809632 6.360310 -23.184643 0.708154 8.133224 18.975981 13.207277 -3.814233 -6.581060 -20.459806 4.953142 0.086272 11.656525 -4.723478 28.434759 1.986766 1.318285 9.049413 3.447905 3.006651 1.275607 -5.807771 -15.392348 -17.553978 0.426614 -11.212886 -7.904761 -24.466609 -16.797349 5.928721 -59.936271 -5.123244 16.343499 14.276320 -37.308896 1.286505 6.386311 -9.111662 0.976137 -9.191189 -2.527398 -14.343027 17.398621 29.241947 8.330794 26.223672 14.385141 -3.781521 -3.783485 4.606950 -19.684522 -5.506050 3.475317 8.834307 7.522444 3.990982 -11.668551 
-0.003116 0.044708 -0.154240 -175.073679 9.044897 0.009323 -9.314574 1.461895 -16.759567 -5.285178 2.110172 -3.122344 -3.689016 12.287594 -1.259323 9.325449 4.809098 -4.754156 -8.162372 6.685120 -33.319195 0.639460 8.729176 25.082158 14.644755 -3.190514 -6.621223 -22.357106 4.499651 0.208722 13.751788 -7.699757 37.816859 0.340401 2.145855 11.011674 3.059621 4.061049 -0.028489 -6.881681 -21.575464 -22.463756 2.981434 -12.438774 -20.560741 -26.000147 -21.943706 6.252492 -57.269696 -3.008723 15.679192 13.037530 -33.786480 1.353051 3.818894 -9.364435 5.707994 -8.137186 -2.385664 -16.513857 13.588238 36.335875 7.924652 14.500218 12.613023 -11.440977 -1.646938 1.470400 -25.140888 -7.082387 4.476137 16.605673 6.945018 4.039867 -13.817009 
-0.007688 0.057637 -0.178754 -171.766574 6.179677 4.006977 -11.374566 -3.422726 -21.919565 -5.255532 5.838834 -4.297502 -0.914070 14.612898 -0.777823 4.756700 7.011989 -3.279684 -11.694578 7.989832 -41.485571 1.596590 13.560290 29.872792 13.576054 -6.227429 -8.978279 -17.915288 6.633618 0.465592 13.821351 -10.080897 46.700254 -2.643634 4.432796 11.364653 2.068423 4.729476 0.117533 -6.050824 -23.232292 -29.466229 4.692878 -12.776245 -24.198630 -27.134192 -25.056151 4.134684 -54.782669 -2.888263 16.345609 14.542027 -32.403985 -5.284331 6.535995 -9.782959 0.265218 -4.105431 -1.624271 -11.069038 10.912151 40.494231 6.862662 3.065096 9.826281 -15.338598 1.035368 -0.048159 -29.846002 -9.967795 2.263551 19.797357 3.132880 3.246683 -14.369666 
